<?xml version="1.0" encoding="utf-8"?>
<!-- Generator: Adobe Illustrator 24.2.3, SVG Export Plug-In . SVG Version: 6.00 Build 0)  -->
<svg version="1.1" id="Layer_1" xmlns="http://www.w3.org/2000/svg" xmlns:xlink="http://www.w3.org/1999/xlink" x="0px" y="0px"
	 viewBox="0 0 500 100" style="enable-background:new 0 0 500 100;" xml:space="preserve">
<style type="text/css">
	.st0{fill:#C2C2C2;}
	.st1{fill:#0481AB;}
	.st2{fill:#FFFFFF;}
	.st3{fill:#086281;}
	.st4{fill:#024156;}
</style>
<path class="st0" d="M188.08,94.58H13.47c-4.38,0-7.97-3.59-7.97-7.97V12.3c0-3.96,3.24-7.19,7.19-7.19h176.39c3.85,0,7,3.15,7,7
	v74.47C196.08,90.98,192.48,94.58,188.08,94.58z"/>
<path class="st1" d="M63.82,85.09h-40c-3.85,0-7-3.15-7-7v-56c0-3.85,3.15-7,7-7h40c3.85,0,7,3.15,7,7v56
	C70.82,81.94,67.67,85.09,63.82,85.09z"/>
<path class="st2" d="M51.77,45.98c10.8,2.45,13.53,8.86,13.53,14.9c0,9.36-7.05,16.34-21.31,16.34c-14.97,0-21.67-7.49-21.67-13.1
	c0-2.88,2.09-4.89,4.97-4.89c6.41,0,4.75,9.36,16.7,9.36c6.12,0,9.5-3.38,9.5-6.84c0-2.09-1.01-4.39-5.04-5.4l-13.32-3.38
	c-10.73-2.73-12.67-8.64-12.67-14.18c0-11.52,10.65-15.84,20.66-15.84c9.21,0,20.09,5.18,20.09,12.09c0,2.95-2.52,4.68-5.4,4.68
	c-5.47,0-4.46-7.7-15.48-7.7c-5.47,0-8.49,2.52-8.49,6.12s4.32,4.75,8.06,5.62L51.77,45.98z"/>
<path class="st3" d="M120.79,84.59h-40c-3.85,0-7-3.15-7-7v-56c0-3.85,3.15-7,7-7h40c3.85,0,7,3.15,7,7v56
	C127.79,81.44,124.64,84.59,120.79,84.59z"/>
<path class="st2" d="M81.36,30.11c0-5.26,2.74-6.91,6.91-6.91h25.99c3.46,0,5.97,1.01,5.97,4.75s-2.52,4.75-5.97,4.75H93.17v12.09
	h17.85c3.1,0,5.54,0.87,5.54,4.54s-2.45,4.54-5.54,4.54H93.17v16.2c0,3.53-2.3,5.9-5.9,5.9s-5.9-2.38-5.9-5.9L81.36,30.11z"/>
<path class="st4" d="M177.77,84.84h-40c-3.85,0-7-3.15-7-7v-56c0-3.85,3.15-7,7-7h40c3.85,0,7,3.15,7,7v56
	C184.77,81.69,181.62,84.84,177.77,84.84z"/>
<path class="st2" d="M159.96,22.7c13.54,0,20.95,8.49,20.95,13.53c0,3.31-1.8,5.33-5.33,5.33c-6.84,0-4.82-9.36-15.62-9.36
	c-7.41,0-13.53,6.41-13.53,17.64c0,9.43,3.74,17.64,13.96,17.64c9.29,0,9.07-9.93,14.76-9.93c2.88,0,5.76,1.66,5.76,4.54
	c0,7.49-9.07,14.9-20.52,14.9c-16.2,0-25.77-9.29-25.77-27.14C134.62,35.22,143.26,22.7,159.96,22.7L159.96,22.7z"/>
<path class="st2" d="M237.74,45.89c10.8,2.45,13.54,8.86,13.54,14.91c0,9.36-7.06,16.34-21.31,16.34c-14.98,0-21.67-7.49-21.67-13.1
	c0-2.88,2.09-4.9,4.97-4.9c6.41,0,4.75,9.36,16.71,9.36c6.12,0,9.5-3.38,9.5-6.84c0-2.09-1.01-4.39-5.04-5.4l-13.32-3.38
	c-10.73-2.74-12.67-8.64-12.67-14.19c0-11.52,10.66-15.84,20.67-15.84c9.22,0,20.09,5.18,20.09,12.1c0,2.95-2.52,4.68-5.4,4.68
	c-5.47,0-4.46-7.71-15.48-7.71c-5.47,0-8.5,2.52-8.5,6.12s4.32,4.75,8.06,5.62L237.74,45.89z"/>
<path class="st2" d="M272.34,37.32c12.67,0,19.44,8.64,19.44,19.73c0,10.51-5.11,19.8-19.44,19.8s-19.44-9.29-19.44-19.8
	C252.89,45.97,259.66,37.32,272.34,37.32z M272.34,69.08c6.26,0,8.93-5.62,8.93-12.02c0-6.84-2.81-11.95-8.93-11.95
	s-8.93,5.11-8.93,11.95C263.41,63.46,266.07,69.08,272.34,69.08z"/>
<path class="st2" d="M293.96,28.4c0-3.46,2.09-5.26,5.26-5.26s5.26,1.8,5.26,5.26v43.2c0,3.46-2.09,5.26-5.26,5.26
	s-5.26-1.8-5.26-5.26V28.4z"/>
<path class="st2" d="M342.74,71.6c0,3.17-1.44,5.26-4.75,5.26s-4.75-2.09-4.75-5.26v-1.37h-0.14c-2.95,3.89-6.77,6.62-12.75,6.62
	c-6.34,0-13.25-3.17-13.25-13.83V42.57c0-2.81,1.15-5.26,5.26-5.26c4.1,0,5.26,2.45,5.26,5.26v18.36c0,4.25,2.09,7.27,6.62,7.27
	c3.67,0,7.99-3.02,7.99-8.28V42.57c0-2.81,1.15-5.26,5.26-5.26c4.1,0,5.26,2.45,5.26,5.26V71.6H342.74z"/>
<path class="st2" d="M350.34,45.17h-1.8c-2.95,0-4.18-1.15-4.18-3.46c0-2.3,1.22-3.46,4.18-3.46h1.8v-6.41
	c0-3.46,2.09-5.26,5.26-5.26s5.26,1.8,5.26,5.26v6.41h3.17c3.1,0,4.75,0.94,4.75,3.46s-1.66,3.46-4.75,3.46h-3.17V66.2
	c0,1.58,0.86,2.45,2.74,2.45h1.51c2.3,0,3.67,1.3,3.67,3.53c0,3.02-2.59,4.68-7.63,4.68c-7.63,0-10.8-3.17-10.8-9.36V45.17
	L350.34,45.17z"/>
<path class="st2" d="M375.86,22.85c3.02,0,5.47,2.45,5.47,5.47s-2.45,5.47-5.47,5.47s-5.47-2.45-5.47-5.47
	S372.84,22.85,375.86,22.85z M370.61,42.58c0-2.81,1.15-5.26,5.26-5.26s5.26,2.45,5.26,5.26V71.6c0,2.81-1.15,5.26-5.26,5.26
	s-5.26-2.45-5.26-5.26V42.58z"/>
<path class="st2" d="M402.4,37.32c12.67,0,19.44,8.64,19.44,19.73c0,10.51-5.11,19.8-19.44,19.8s-19.44-9.29-19.44-19.8
	C382.96,45.97,389.73,37.32,402.4,37.32z M402.4,69.08c6.26,0,8.93-5.62,8.93-12.02c0-6.84-2.81-11.95-8.93-11.95
	s-8.93,5.11-8.93,11.95C393.47,63.46,396.14,69.08,402.4,69.08z"/>
<path class="st2" d="M423.46,42.58c0-3.17,1.44-5.26,4.75-5.26s4.75,2.09,4.75,5.26v1.37h0.14c2.95-3.89,6.77-6.62,12.75-6.62
	c6.34,0,13.25,3.17,13.25,13.83v20.45c0,2.81-1.15,5.26-5.26,5.26c-4.1,0-5.26-2.45-5.26-5.26V53.25c0-4.25-2.09-7.27-6.62-7.27
	c-3.67,0-7.99,3.02-7.99,8.28v17.35c0,2.81-1.15,5.26-5.26,5.26s-5.26-2.45-5.26-5.26V42.58H423.46z"/>
<path class="st2" d="M476.5,37.32c7.99,0,16.06,3.17,16.06,7.99c0,2.45-1.66,4.61-4.39,4.61c-4.1,0-4.25-4.82-10.87-4.82
	c-3.67,0-6.05,1.01-6.05,3.24c0,2.45,2.38,3.02,5.62,3.74l4.39,1.01c5.98,1.37,13.11,3.89,13.11,11.23c0,8.57-8.28,12.53-16.2,12.53
	c-9.5,0-17.43-4.25-17.43-9.43c0-2.3,1.3-4.39,4.25-4.39c4.54,0,4.97,6.48,12.75,6.48c3.74,0,6.12-1.66,6.12-3.82
	c0-2.66-2.3-3.1-6.05-4.03l-6.19-1.51c-6.12-1.51-10.87-4.03-10.87-11.09C460.73,40.49,469.23,37.32,476.5,37.32z"/>
<g>
	<path class="st2" d="M251.47,91.32l-2.41-4.01c-0.1-0.16-0.17-0.34-0.17-0.52c0-0.67,0.61-0.9,1-0.9c0.47,0,0.68,0.19,0.89,0.58
		l1.71,3.15l1.7-3.15c0.23-0.43,0.44-0.58,0.85-0.58c0.36,0,0.97,0.23,0.97,0.9c0,0.18-0.07,0.36-0.17,0.52l-2.41,4.01v2.54
		c0,0.59-0.38,0.98-0.98,0.98s-0.98-0.4-0.98-0.98L251.47,91.32z"/>
	<path class="st2" d="M262.85,85.85c2.83,0,4.37,1.88,4.37,4.41c0,2.43-1.42,4.63-4.37,4.63c-3.09,0-4.37-2.02-4.37-4.63
		C258.49,87.73,260.02,85.85,262.85,85.85z M262.85,93.31c1.79,0,2.4-1.39,2.4-3.05c0-1.65-0.79-2.83-2.4-2.83s-2.4,1.18-2.4,2.83
		C260.45,91.92,261,93.31,262.85,93.31z"/>
	<path class="st2" d="M270.71,86.88c0-0.59,0.38-0.98,0.98-0.98s0.98,0.4,0.98,0.98v4.73c0,1.18,0.66,1.7,1.79,1.7
		s1.79-0.53,1.79-1.7v-4.73c0-0.59,0.38-0.98,0.98-0.98s0.98,0.4,0.98,0.98v4.57c0,2.37-1.46,3.44-3.75,3.44s-3.75-1.07-3.75-3.44
		L270.71,86.88z"/>
	<path class="st2" d="M282.13,87.2c0-0.88,0.46-1.15,1.15-1.15h3.27c2.34,0,2.96,1.28,2.96,2.4c0,0.94-0.55,1.86-1.49,2.08v0.02
		c1.01,0.14,1.19,0.88,1.19,1.75c0,1,0.26,1.37,0.26,1.77c0,0.46-0.47,0.77-0.92,0.77c-1.08,0-1.16-1.04-1.16-1.39
		c0-1.51-0.28-2.12-1.36-2.12h-1.94v2.53c0,0.59-0.38,0.98-0.98,0.98s-0.98-0.4-0.98-0.98L282.13,87.2z M284.1,89.89h1.97
		c0.74,0,1.49-0.19,1.49-1.16c0-0.92-0.56-1.16-1.43-1.16h-2.03V89.89z"/>
	<path class="st2" d="M298.95,87.2c0-0.88,0.45-1.15,1.15-1.15h4.33c0.58,0,1,0.17,1,0.79s-0.42,0.79-1,0.79h-3.51v2.02h2.97
		c0.52,0,0.92,0.14,0.92,0.76c0,0.61-0.41,0.76-0.92,0.76h-2.97v2.7c0,0.59-0.38,0.98-0.98,0.98s-0.98-0.4-0.98-0.98L298.95,87.2z"
		/>
	<path class="st2" d="M308.56,86.88c0-0.59,0.38-0.98,0.98-0.98s0.98,0.4,0.98,0.98v6.15h3.29c0.56,0,1.02,0.29,1.02,0.83
		s-0.46,0.83-1.02,0.83h-4.1c-0.7,0-1.15-0.28-1.15-1.15L308.56,86.88z"/>
	<path class="st2" d="M318.02,87.2c0-0.88,0.46-1.15,1.15-1.15h4.62c0.58,0,1,0.17,1,0.79s-0.42,0.79-1,0.79h-3.8v1.87h3.33
		c0.52,0,0.92,0.14,0.92,0.76c0,0.61-0.41,0.76-0.92,0.76h-3.33v2.09h3.9c0.58,0,1,0.17,1,0.79s-0.42,0.79-1,0.79h-4.71
		c-0.7,0-1.15-0.28-1.15-1.15V87.2H318.02z"/>
	<path class="st2" d="M330.09,90.24l-1.88-2.82c-0.12-0.18-0.2-0.37-0.2-0.6c0-0.52,0.42-0.92,0.98-0.92c0.47,0,0.7,0.28,0.82,0.48
		l1.43,2.46l1.52-2.46c0.2-0.32,0.37-0.48,0.8-0.48c0.48,0,0.95,0.26,0.95,0.89c0,0.17-0.08,0.4-0.18,0.53l-2,2.93l1.96,2.94
		c0.2,0.31,0.32,0.47,0.32,0.7c0,0.64-0.46,0.97-1.01,0.97c-0.32,0-0.6-0.07-0.83-0.46l-1.58-2.65l-1.7,2.72
		c-0.17,0.28-0.47,0.38-0.77,0.38c-0.58,0-0.95-0.36-0.95-0.84c0-0.2,0.04-0.42,0.26-0.76L330.09,90.24z"/>
	<path class="st2" d="M337.81,86.88c0-0.59,0.38-0.98,0.98-0.98s0.98,0.4,0.98,0.98v6.98c0,0.59-0.38,0.98-0.98,0.98
		s-0.98-0.4-0.98-0.98V86.88z"/>
	<path class="st2" d="M343.7,87.2c0-0.88,0.46-1.15,1.15-1.15h2.62c1.44,0,3.15,0.32,3.15,2.23c0,0.73-0.4,1.43-1.21,1.75v0.02
		c0.91,0.24,1.51,0.89,1.51,2.07c0,1.81-1.48,2.55-3.18,2.55h-2.89c-0.7,0-1.15-0.28-1.15-1.15V87.2z M345.67,89.6h1.62
		c0.92,0,1.37-0.37,1.37-1.06c0-0.83-0.7-1.06-1.43-1.06h-1.56V89.6z M345.67,93.18h1.65c0.77,0,1.63-0.16,1.63-1.15
		c0-1.04-0.91-1.18-1.87-1.18h-1.42L345.67,93.18z"/>
	<path class="st2" d="M354.48,86.88c0-0.59,0.38-0.98,0.98-0.98s0.98,0.4,0.98,0.98v6.15h3.29c0.56,0,1.02,0.29,1.02,0.83
		s-0.46,0.83-1.02,0.83h-4.1c-0.7,0-1.15-0.28-1.15-1.15L354.48,86.88z"/>
	<path class="st2" d="M363.93,87.2c0-0.88,0.46-1.15,1.15-1.15h4.62c0.58,0,1,0.17,1,0.79s-0.42,0.79-1,0.79h-3.8v1.87h3.33
		c0.52,0,0.92,0.14,0.92,0.76c0,0.61-0.41,0.76-0.92,0.76h-3.33v2.09h3.9c0.58,0,1,0.17,1,0.79s-0.42,0.79-1,0.79h-4.71
		c-0.7,0-1.15-0.28-1.15-1.15V87.2H363.93z"/>
	<path class="st2" d="M379.97,87.2c0-0.88,0.46-1.15,1.15-1.15h3.01c1.66,0,2.99,0.82,2.99,2.73c0,1.57-1.09,2.73-3,2.73h-2.18v2.34
		c0,0.59-0.38,0.98-0.98,0.98s-0.98-0.4-0.98-0.98L379.97,87.2z M381.94,90.01h1.84c0.79,0,1.38-0.48,1.38-1.22
		c0-0.86-0.61-1.22-1.58-1.22h-1.63v2.44H381.94z"/>
	<path class="st2" d="M391.94,86.5c0.17-0.44,0.48-0.6,0.96-0.6h0.47c0.44,0,0.84,0.11,1.06,0.72l2.38,6.61
		c0.07,0.19,0.19,0.54,0.19,0.76c0,0.48-0.42,0.86-0.92,0.86c-0.43,0-0.74-0.16-0.89-0.54l-0.5-1.44h-3.17L391,94.31
		c-0.13,0.38-0.41,0.54-0.88,0.54c-0.54,0-0.91-0.34-0.91-0.86c0-0.22,0.12-0.56,0.19-0.76L391.94,86.5z M393.13,88.03h-0.02
		l-1.16,3.47h2.3L393.13,88.03z"/>
	<path class="st2" d="M400.12,87.2c0-0.88,0.46-1.15,1.15-1.15h3.27c2.34,0,2.96,1.28,2.96,2.4c0,0.94-0.55,1.86-1.49,2.08v0.02
		c1.01,0.14,1.19,0.88,1.19,1.75c0,1,0.26,1.37,0.26,1.77c0,0.46-0.47,0.77-0.92,0.77c-1.08,0-1.16-1.04-1.16-1.39
		c0-1.51-0.28-2.12-1.36-2.12h-1.94v2.53c0,0.59-0.38,0.98-0.98,0.98s-0.98-0.4-0.98-0.98L400.12,87.2z M402.09,89.89h1.97
		c0.74,0,1.49-0.19,1.49-1.16c0-0.92-0.56-1.16-1.43-1.16h-2.03V89.89z"/>
	<path class="st2" d="M413.26,87.71h-1.86c-0.56,0-1.02-0.29-1.02-0.83s0.46-0.83,1.02-0.83h5.69c0.56,0,1.02,0.29,1.02,0.83
		s-0.46,0.83-1.02,0.83h-1.86v6.15c0,0.59-0.38,0.98-0.98,0.98s-0.98-0.4-0.98-0.98v-6.15H413.26z"/>
	<path class="st2" d="M421.24,87.05c0-0.82,0.4-1.15,1.23-1.15c0.41,0,0.77,0.16,0.98,0.52l3.44,5.55h0.02v-5.12
		c0-0.64,0.36-0.95,0.95-0.95s0.95,0.31,0.95,0.95v6.78c0,0.78-0.34,1.22-1.16,1.22c-0.62,0-0.83-0.13-1.08-0.53l-3.42-5.4h-0.02
		v4.98c0,0.64-0.36,0.95-0.95,0.95s-0.95-0.31-0.95-0.95L421.24,87.05z"/>
	<path class="st2" d="M432.77,87.2c0-0.88,0.46-1.15,1.15-1.15h4.62c0.58,0,1,0.17,1,0.79s-0.42,0.79-1,0.79h-3.8v1.87h3.33
		c0.52,0,0.92,0.14,0.92,0.76c0,0.61-0.41,0.76-0.92,0.76h-3.33v2.09h3.9c0.58,0,1,0.17,1,0.79s-0.42,0.79-1,0.79h-4.71
		c-0.7,0-1.15-0.28-1.15-1.15V87.2H432.77z"/>
	<path class="st2" d="M443,87.2c0-0.88,0.46-1.15,1.15-1.15h3.27c2.34,0,2.96,1.28,2.96,2.4c0,0.94-0.55,1.86-1.49,2.08v0.02
		c1.01,0.14,1.19,0.88,1.19,1.75c0,1,0.26,1.37,0.26,1.77c0,0.46-0.47,0.77-0.92,0.77c-1.08,0-1.16-1.04-1.16-1.39
		c0-1.51-0.28-2.12-1.36-2.12h-1.94v2.53c0,0.59-0.38,0.98-0.98,0.98s-0.98-0.4-0.98-0.98L443,87.2z M444.97,89.89h1.96
		c0.74,0,1.49-0.19,1.49-1.16c0-0.92-0.56-1.16-1.43-1.16h-2.03v2.32L444.97,89.89z"/>
</g>
</svg>
